<?xml version="1.0" encoding="utf-8"?>
<!-- Generator: Adobe Illustrator 21.0.0, SVG Export Plug-In . SVG Version: 6.00 Build 0)  -->
<svg version="1.1" id="Layer_1" xmlns="http://www.w3.org/2000/svg" xmlns:xlink="http://www.w3.org/1999/xlink" x="0px" y="0px"
	 viewBox="0 0 600 462" style="enable-background:new 0 0 600 462;" xml:space="preserve">
<style type="text/css">
	.st0{fill:url(#SVGID_1_);}
	.st1{fill:#FFFFFF;}
	.st2{fill:#EBF5FF;}
	.st3{fill:#84B4FE;}
	.st4{fill:#C1DDF7;}
	.st5{fill:#8D39D8;}
	.st6{fill:#214A81;}
	.st7{fill:url(#SVGID_2_);}
	.st8{fill:#4F87DB;}
	.st9{fill:#FFD474;}
	.st10{clip-path:url(#SVGID_4_);}
</style>
<g>
	<g>
		<linearGradient id="SVGID_1_" gradientUnits="userSpaceOnUse" x1="200.4806" y1="200.7359" x2="413.1267" y2="569.0496">
			<stop  offset="0" style="stop-color:#C9E1F4"/>
			<stop  offset="1" style="stop-color:#3B8DC4"/>
		</linearGradient>
		<path class="st0" d="M599.6,284.8c-21.2-31.7-50.6-59-84.8-79.3c-54.2-32.2-117.7-52.5-182.3-51.4c-60.5,1-124.5,28.8-157.4,86.4
			c-26.7,46.7-34.8,90.2-78.1,125.2c-29.8,24.1-77.8,32.1-92.7,65.9c-4.2,9.5-5,19.6-4,29.8h599.3V284.8z"/>
	</g>
</g>
<g>
	<path class="st1" d="M217.6,229.1c3-2.7,6.2-2.3,7.9-1.7c1.5-3.8,4.6-8,11.3-8c12,0,13,11.8,13,11.8c8.5-2.6,10.1,4.9,10.1,5.2
		h-45.4C214.4,231.5,217.6,229.1,217.6,229.1z"/>
	<g>
		<g>
			<g>
				<path class="st1" d="M446.5,250.7c2.2,0,4.3,0.6,6,1.6c3.4-6,9.7-10,16.9-10c6.8,0,12.7,3.5,16.2,8.8
					c1.9-6.4,7.7-11.1,14.5-11.1c7.8,0,14.2,6,15,13.7c0.6-0.1,1.3-0.2,1.9-0.2c4.7,0,8.9,2.7,10.9,6.8h-93.6
					C435.7,254.9,440.6,250.7,446.5,250.7z"/>
			</g>
		</g>
	</g>
	<g>
		<circle class="st2" cx="386.6" cy="17.1" r="6.5"/>
		<circle class="st3" cx="240.1" cy="152.3" r="4.3"/>
		<path class="st2" d="M417.4,129.5l-2.6-1.4c-0.2-0.1-0.3-0.2-0.4-0.4l-1.4-2.6c-0.4-0.7-1.3-0.7-1.6,0l-1.4,2.6
			c-0.1,0.2-0.2,0.3-0.4,0.4l-2.6,1.4c-0.7,0.4-0.7,1.3,0,1.6l2.6,1.4c0.2,0.1,0.3,0.2,0.4,0.4l1.4,2.6c0.4,0.7,1.3,0.7,1.6,0
			l1.4-2.6c0.1-0.2,0.2-0.3,0.4-0.4l2.6-1.4C418.1,130.8,418.1,129.9,417.4,129.5z"/>
		<path class="st4" d="M264.6,42.7l-3.3-1.8c-0.2-0.1-0.4-0.3-0.5-0.5l-1.8-3.3c-0.4-0.8-1.6-0.8-2.1,0l-1.8,3.3
			c-0.1,0.2-0.3,0.4-0.5,0.5l-3.3,1.8c-0.8,0.4-0.8,1.6,0,2.1l3.3,1.8c0.2,0.1,0.4,0.3,0.5,0.5l1.8,3.3c0.4,0.8,1.6,0.8,2.1,0
			l1.8-3.3c0.1-0.2,0.3-0.4,0.5-0.5l3.3-1.8C265.4,44.4,265.4,43.2,264.6,42.7z"/>
		<path class="st4" d="M491.4,108.4l-4-2.1c-0.2-0.1-0.4-0.3-0.6-0.6l-2.1-4c-0.5-1-2-1-2.5,0l-2.1,4c-0.1,0.2-0.3,0.4-0.6,0.6
			l-4,2.1c-1,0.5-1,2,0,2.5l4,2.1c0.2,0.1,0.4,0.3,0.6,0.6l2.1,4c0.5,1,2,1,2.5,0l2.1-4c0.1-0.2,0.3-0.4,0.6-0.6l4-2.1
			C492.4,110.4,492.4,108.9,491.4,108.4z"/>
		<path class="st3" d="M183.3,93.2l-3.6-1.9c-0.2-0.1-0.4-0.3-0.5-0.5l-1.9-3.6c-0.5-0.9-1.8-0.9-2.3,0l-1.9,3.6
			c-0.1,0.2-0.3,0.4-0.5,0.5l-3.6,1.9c-0.9,0.5-0.9,1.8,0,2.3l3.6,1.9c0.2,0.1,0.4,0.3,0.5,0.5l1.9,3.6c0.5,0.9,1.8,0.9,2.3,0
			l1.9-3.6c0.1-0.2,0.3-0.4,0.5-0.5l3.6-1.9C184.2,95,184.2,93.7,183.3,93.2z"/>
		<path class="st3" d="M424.9,70.6l-2.6-1.4c-0.2-0.1-0.3-0.2-0.4-0.4l-1.4-2.6c-0.4-0.7-1.3-0.7-1.7,0l-1.4,2.6
			c-0.1,0.2-0.2,0.3-0.4,0.4l-2.6,1.4c-0.7,0.4-0.7,1.3,0,1.7l2.6,1.4c0.2,0.1,0.3,0.2,0.4,0.4l1.4,2.6c0.4,0.7,1.3,0.7,1.7,0
			l1.4-2.6c0.1-0.2,0.2-0.3,0.4-0.4l2.6-1.4C425.6,71.9,425.6,71,424.9,70.6z"/>
	</g>
	<rect x="313.5" y="261.9" class="st1" width="37.7" height="177.1"/>
	<path class="st2" d="M346.8,272c0-7.6-6.2-13.8-13.8-13.8c-7.6,0-13.8,6.2-13.8,13.8c0,0-1.8,32.6,13.8,50
		C348.6,304.6,346.8,272,346.8,272z"/>
	<g>
		<path class="st5" d="M284.8,197.3c0,0-51.6,25-31.2,98.8c0,0,10.9-37.1,46-46.7L284.8,197.3z"/>
		<path class="st5" d="M381.6,197.3c0,0,51.6,25,31.2,98.8c0,0-10.9-37.1-46-46.7L381.6,197.3z"/>
		<path class="st6" d="M350,264.8h-35.1c-1.4,0-2.6-1-2.9-2.3l-1.9-8.5c-0.4-1.9,1-3.6,2.9-3.6h39c1.9,0,3.3,1.8,2.9,3.6l-1.9,8.5
			C352.6,263.8,351.4,264.8,350,264.8z"/>
		<linearGradient id="SVGID_2_" gradientUnits="userSpaceOnUse" x1="333.0016" y1="68.477" x2="333.0016" y2="258.1768">
			<stop  offset="0" style="stop-color:#4F87DB"/>
			<stop  offset="1" style="stop-color:#8D39D8"/>
		</linearGradient>
		<path class="st7" d="M281.8,177.4c0,0,5.4,49.5,22,80.8c0,0,26.4-12.7,57.8,0c0,0,19.1-26.4,23-84.7c2.3-33.6-0.4-71.9-11.6-105
			h-77.7C285,95.4,277.7,131.5,281.8,177.4z"/>
		<path class="st8" d="M327,14.9c-7.8,8.8-21.2,26.6-31.6,53.6h77.7c-7.1-21.1-17.7-40.1-32.6-54.3C336.6,10.6,330.5,10.9,327,14.9z
			"/>
		<path class="st5" d="M331.9,175c0,0-23.8,54.1,0,118.5C331.9,293.5,358.3,239.8,331.9,175z"/>
		<circle class="st6" cx="334.1" cy="124.7" r="30"/>
		<circle class="st9" cx="334.1" cy="124.7" r="20.8"/>
	</g>
	<g>
		<defs>
			<rect id="SVGID_3_" x="31.6" y="350.4" width="568.1" height="113.2"/>
		</defs>
		<clipPath id="SVGID_4_">
			<use xlink:href="#SVGID_3_"  style="overflow:visible;"/>
		</clipPath>
		<g class="st10">
			<ellipse class="st1" cx="280.6" cy="446.6" rx="43.9" ry="43.3"/>
			<ellipse class="st1" cx="414.9" cy="446.6" rx="39.3" ry="38.8"/>
			<ellipse class="st1" cx="350" cy="413" rx="30.7" ry="30.3"/>
			<ellipse class="st1" cx="294" cy="394.6" rx="21.4" ry="21.1"/>
			<ellipse class="st1" cx="348.6" cy="377.2" rx="14.6" ry="14.4"/>
			<ellipse class="st1" cx="322.6" cy="412.6" rx="25.9" ry="25.6"/>
			<path class="st1" d="M194.1,522.1c-6.1,42.7-46.2,72.5-89.5,66.5c-43.4-6-73.6-45.5-67.5-88.3c6.1-42.7,46.2-72.5,89.5-66.5
				C170,439.8,200.2,479.3,194.1,522.1z"/>
			<path class="st1" d="M270.1,464c1.4,32.3-24.1,59.6-56.9,61c-32.8,1.3-60.5-23.8-61.9-56.1c-1.4-32.3,24.1-59.6,56.9-61
				C241.1,406.5,268.8,431.6,270.1,464z"/>
			<ellipse class="st1" cx="501.5" cy="506.3" rx="84" ry="82.8"/>
			<ellipse class="st1" cx="293.1" cy="486.9" rx="59.4" ry="58.6"/>
			<path class="st1" d="M429.9,466c7.6,35.6-15.5,70.5-51.6,78.1c-36.1,7.5-71.6-15.2-79.2-50.8c-7.6-35.6,15.5-70.5,51.6-78.1
				C386.8,407.6,422.3,430.4,429.9,466z"/>
		</g>
	</g>
</g>
</svg>
